<mxfile host="app.diagrams.net" modified="2023-04-11T14:43:34.198Z" agent="Mozilla/5.0 (Windows NT 10.0; Win64; x64) AppleWebKit/537.36 (KHTML, like Gecko) Chrome/111.0.0.0 Safari/537.36" etag="NxmLL9zL91OdxAKteqSL" version="21.1.5" type="device">
  <diagram name="Page-1" id="8Tq3TvmP6Im_llvb4n2Z">
    <mxGraphModel dx="1246" dy="413" grid="1" gridSize="10" guides="1" tooltips="1" connect="1" arrows="1" fold="1" page="1" pageScale="1" pageWidth="850" pageHeight="1100" math="0" shadow="0">
      <root>
        <mxCell id="0" />
        <mxCell id="1" parent="0" />
        <mxCell id="JiWWLkQzsv33unfDydBg-1" value="Store User" style="shape=umlActor;verticalLabelPosition=bottom;verticalAlign=top;html=1;outlineConnect=0;" vertex="1" parent="1">
          <mxGeometry x="170" y="180" width="20" height="30" as="geometry" />
        </mxCell>
        <mxCell id="JiWWLkQzsv33unfDydBg-2" value="" style="shape=image;verticalLabelPosition=bottom;labelBackgroundColor=default;verticalAlign=top;aspect=fixed;imageAspect=0;image=data:image/png,iVBORw0KGgoAAAANSUhEUgAAAHgAAAB/CAMAAAATv/ZYAAAAZlBMVEX///8AAACPj49UVFTd3d36+vrx8fHt7e00NDQWFhb39/dMTEyXl5eMjIzX19fU1NTGxsbNzc0aGhrm5uZ9fX1hYWGqqqqdnZ0sLCx3d3doaGi4uLijo6Nubm47OzsNDQ1CQkIjIyPuj1XeAAAEkklEQVRoge2b67qqIBCGMdNKc2mpqZWl93+Tu4RBwUlJwfXsvf1+5YF55QwzRAgh2+BxmCMr3ZIpOlrzFU3gXjRwLev0NdfVwp1AvmkCf03WUcOTyBtt4C/JAN77k3ToksMp4NDxJsi1ralkAE8bAxwKfpbUyPNnYbAVMzNPdTN6wCHvHcqlrQvMyaqGtIG/JesDg6mDmimNYJIwcrw0GMhPFbJWMAnUrekFc/J4njWDgTxez7rBUM/nMbJ2MGHj9mG3NJgUSvVsAMx71WCeTYD5SDJENgKG0s4HyGbA5MrI7tLgcbIpMJR2/YmsB4ztnYDsmQCTlKZOsWeMvMfzPBMMg0V6i/rK6bMHSp4JVtp6VVhpzwR7KmDrrh9M7irgxACY+ArgowmwV/4SmJDIHqSaAxPi3jJUiWnwJ4W/BT6t4BW8glfwCl7BK/j/BU9agbi72XIjZnzTMeYNgy+pEG3QqCrZfQbHuSEq1f0TeGsU+1KAg929abB1Q8GZca6VY2BHZRs2VycEvH0uAL4g4J8FuNbmt8DBCv4ErtPgfgyKXg8/+MkxOwbXmt+g6jZQODwxAZxxn7d7O3fuF60rMaZemDPz13aOHrB34u/BGyKIx9jP0sTSePkydvHgydmNRLCpAr4RSewARz9k+x55zuJL3NXkiPOOAvgim4ePhwcu94Y3k8tJssK+W3IBjoNtft9x4Jf7/nrwjRZ5boPz1m9zSCpWH+y19Fsw3Pc2/uMK5x7eDSntFum2c8He2QgfLrseR8EVuxnT/gFN5/WzoL/osurV/rx4Gx47VfAjlLR8sGcUDBVZ8de88FbUbY7JLivFdgN5bJJAwK2yRI2C5aaS2jCGPFpfsBdf0rpNw1hJ5yvETqwArmO8pN4Su9nuwnsu6/fNovouVLg6GJoutijphS3Bg8z84l7NzXoPOfEomJVnICdsJB83gY0Dq5/CsnxHeKALbJVS2Ifl+UqvIl7qfc/yGBjiVR/98I972Al1eLR9QyWA1V39NfjQHRnesn8KuWfs7QuvbRZfY52wrGlJIxGT0e7EBkPYfb2bshdm1dM65Pu9f00SgQSHUCr2uWz4RBzpo2DY59X0EorehnqEoVBq/bTZxbTHYRuTUTDMcluhALw2llQIyQtutyPsdN74JAHDhHssrwHU5Z1nijhNF2X5b6f/Lvhs9TUOPjukp6bxwvTn3IIEpsWIJ+tEOfudWAmMBauaFvVEQrftWrCU3p4A7vsRWKfuxyqvnVTtFIJx1RZ7pRiT5DnIxcF6J/QaHk7Ew56Ky9vgBOytME9dI1hvuZFUorZL5Ulrnu/ArzaW22VZ+rm8kzzUVZqmdt73mJyZUO5fsIVZwXOFbczjegEw5orAZjHtwpwvmk7VD2qP+rkW8DdFuEuxt/zWrfdOCHWiumaruZnjP7iNo8Lfzxdsqur21iPN6Az/0VHuubPlcUd5xxjY/zdjEit4Ba/g/wMcEke7+GJ+CPywDahWABsVBtb3n7YBZQhY27/4hoSdCd4twMWP/S4QwuwFFxZqXtjJ20ZhYios/1Kd4EPTH2FlWrZuyouxAAAAAElFTkSuQmCC;" vertex="1" parent="1">
          <mxGeometry x="170" y="80" width="25.51" height="27" as="geometry" />
        </mxCell>
        <mxCell id="JiWWLkQzsv33unfDydBg-3" value="Product CSV" style="text;html=1;strokeColor=none;fillColor=none;align=center;verticalAlign=middle;whiteSpace=wrap;rounded=0;" vertex="1" parent="1">
          <mxGeometry x="132.76" y="107" width="100" height="30" as="geometry" />
        </mxCell>
        <mxCell id="JiWWLkQzsv33unfDydBg-4" value="" style="endArrow=classic;html=1;rounded=0;" edge="1" parent="1">
          <mxGeometry width="50" height="50" relative="1" as="geometry">
            <mxPoint x="179.5" y="130" as="sourcePoint" />
            <mxPoint x="179.5" y="170" as="targetPoint" />
          </mxGeometry>
        </mxCell>
        <mxCell id="JiWWLkQzsv33unfDydBg-5" value="" style="endArrow=classic;html=1;rounded=0;" edge="1" parent="1">
          <mxGeometry width="50" height="50" relative="1" as="geometry">
            <mxPoint x="210" y="194.5" as="sourcePoint" />
            <mxPoint x="310" y="194.5" as="targetPoint" />
          </mxGeometry>
        </mxCell>
        <mxCell id="JiWWLkQzsv33unfDydBg-6" value="Upload CSV" style="text;html=1;strokeColor=none;fillColor=none;align=center;verticalAlign=middle;whiteSpace=wrap;rounded=0;" vertex="1" parent="1">
          <mxGeometry x="220" y="160" width="80" height="30" as="geometry" />
        </mxCell>
        <mxCell id="JiWWLkQzsv33unfDydBg-7" value="" style="shape=image;verticalLabelPosition=bottom;labelBackgroundColor=default;verticalAlign=top;aspect=fixed;imageAspect=0;image=data:image/png,iVBORw0KGgoAAAANSUhEUgAAAIUAAAB7CAMAAABtnLNnAAAAaVBMVEX29vYAAAD39/f+/v77+/uFhYXHx8fAwMDX19dra2sgICChoaHx8fFHR0eKioru7u7m5uazs7NeXl7e3t4XFxesrKx5eXl/f38wMDC6urpRUVFXV1c/Pz/Q0NAQEBBkZGSWlpYnJyc4ODhHLdNyAAAG2ElEQVR4nO1ba7eqLBDWYdJME81LaZnV//+RLwIqkO3ceems9e75cBa7I/A49xnQgn+BLLC+T/8aCkCyEuHTi7cogERxuFmFwoKSYRRg+Tt7NXrEBjsECrCO62FoyMcBFMRfF4Rtu/iEAqIVxSFoH4CJArO1Qdi2gyYKslkfRUb+BRT+/wJFHYZhfufDq9eMUz7e5WzsrYXC55Gg4uOYjws+rrjz7uxgWRQPypWf5GxcchcJeGBjj+8KwX4VFKUICSRk4xr5H9jIIZQoylVQ7HUUnBfroyifUGi8sM6roLhQgaIJj+ev6QVzig1FfOyQ3l4S0tvL8ihsz/f9jfARds7GMmm4bth4NX8xkv5Q/KH4Q/ExirOzNLmP9yg8gguTNcKDe3qxMj+NiiN/KP5QzIcC8LkvsjoKEhVFYvZF1kaBMctodv64mUuhwOrKp1ajpi6GIhRTN99EAfQip8IYDV0IBTrtqt/kBZECsZMvogCQkfoyzmUsgwIrOfM2zmHMhgJUNewEwgwVRujnHCiadiDQyOqeApSLPtgwiCi8e4tZeIFYealdb9vHMJETQ4Juae/yLXnzHpNRANtJ1P3XFga2PWOHSIs9V0h+EMxUFIA0a1ewj0SuKbsRF0ravoRdFvQ1jmkoNAx9e2QrS/MNEqWHvY/pK7udggJJdDvZCuViia5j5yLZq///yF7w43MUSJLwamskmtgAB7kpM45YfyK9RUOK+iEKlkdVub6BfYqlQBIpkCP7G8xjnvRYPedgH6Fg9l/lBh9Ot0guTlqBNKwB3IZ3/UlmuJa54AcoAN3a4MPFpx2niRRIKs46nrSnWdDR2fEBCqCesei+sHqt68528nYWkCB+GFNyDcYHKNAo5WsH1CUVC+mXI1Zx0GdpicfvUXRpFKedV1k6d4nkVEq1t8XAOaTKxLN6bvwBikiVsmdaHlgti4ygzixbZceeTkNhlbZKm0Q7Fca2gRrrYsStfirqTdWLwtYpVz0ASDdyj/ptmHd5sqpqml4w31gYlnc9OIHE0cmrT76ZSriGatp74+D0E39BaHYxlj0UwlDQNZZjP2dn4+GyCIwVP/LgQMDdG0s/Yp50SYGkiWAFBr7pKg7Okwv/NJoxUTum86oDACr3rMVGEJXGQ/lAGJkQU1kw2eZ6qPJJJ5BMTOnSYEH3YwJDOcaU/AIa81M9kUe6KbIaIqoe78IEX6w0LeNjoSpMFRStQM7SQsi9+8/TLXiZA0/OfpnB+H3L1CxPuyXKOPgh/Z2hEmDJZ8wX8agpEKad3EoPrvVjqThLPcL4UeR1RpFI6Zy6tTDy66P7Ex9mQ2GJm0wsr5ITlPIUBm8fLYNCEN7E89dxfaRlUHRrlcG7l3+aOeJUdySKTiDhyAajsl8iI9MMKLry9PfdOBaZ8pkkItm6/61AxGwmlfsje307aByK7sj+dwIR9wSxEahDg+ebUr+WiHz+VxaC8bG5xdc0HViw1fs+n6EQeVY+qsXZbhQJR3cc4t+H/iIID172xk+2OyCPr20Nxct9+dtEFE3OMZg/DD2Z8Q6UhoL4dbXmKQ00ffITRQvpXaIAntzvXOUtFkaBAc8Wa4tEvtCLvRMQ4fQUW10WBVCZjXpKlXI9yjTl1ncsl0Xx45XNvK+wFpZI/BrEJVmJF0I5X1C1ll40wcssZloqFFNd3lLNyrUlbiKwOIqmjETy8jJvGjUOVASB5VAAPXq+u1Wq7Z23UcvpcBuHB+E0lkNhdj9ORRPa6U3/9cE7PQui0O+Yp6JLCoaI0u3CKPTGktu2OYj+u4NLojC6YmUXu7rUWRDPP5dDQbVuVJ8c9iUJp3wAxVy3g5oXv6nNqD7lBlCYtCsHJHLYzkRM81ltnTid/x7ixSnbRsGApV5381DKNwUgSXugcFb0ov2tbrJg6xnFfCQkoLSPWxuxehsJjZj6OvB9TPyYEaGLIjvhL1SXHnfps/hywx1caAqVpIlkyabvQj1iyiQQKb7zEreHOOIrlsDsaU6mjDC1yPTW8T7fePovZ3kwK77o6W5RzEbMAPH2/jEhOImChZ70/YzfkIs/ZnstPSJQUDD78cwzr0kUEt09vaBYlUgDAyPHnY+apFLK2WyPc9rdm3/3CDoKUTzOR9w15Gy7eEg/7lvauA1HtZGlCCLvFiCgaxzJ2gfmPEjldWXRst9kAi+pgZi1Efes2J8ZrPFlaHd5p6PS2HUVFDJMhY7ryGhv3KtaAQXInsEuYYWBTEY3ekdnFRTCb9TYh/XBbzKXhhHXTD+LpqNjsSD72FRf0IumhZ/4N1554Pbo0qeu/VpfT0N7dQmHDg7+tW+4v0lgffmrfkH/Aa++clKP4V8CAAAAAElFTkSuQmCC;" vertex="1" parent="1">
          <mxGeometry x="326" y="180" width="35.68" height="33" as="geometry" />
        </mxCell>
        <mxCell id="JiWWLkQzsv33unfDydBg-8" value="SPA" style="text;html=1;strokeColor=none;fillColor=none;align=center;verticalAlign=middle;whiteSpace=wrap;rounded=0;" vertex="1" parent="1">
          <mxGeometry x="293.84000000000003" y="213" width="100" height="30" as="geometry" />
        </mxCell>
        <mxCell id="JiWWLkQzsv33unfDydBg-9" value="Call API" style="text;html=1;strokeColor=none;fillColor=none;align=center;verticalAlign=middle;whiteSpace=wrap;rounded=0;" vertex="1" parent="1">
          <mxGeometry x="385" y="160" width="80" height="30" as="geometry" />
        </mxCell>
        <mxCell id="JiWWLkQzsv33unfDydBg-10" value="" style="endArrow=classic;html=1;rounded=0;" edge="1" parent="1">
          <mxGeometry width="50" height="50" relative="1" as="geometry">
            <mxPoint x="375" y="194.5" as="sourcePoint" />
            <mxPoint x="475" y="194.5" as="targetPoint" />
          </mxGeometry>
        </mxCell>
        <mxCell id="JiWWLkQzsv33unfDydBg-11" value="" style="shape=image;verticalLabelPosition=bottom;labelBackgroundColor=default;verticalAlign=top;aspect=fixed;imageAspect=0;image=data:image/png,iVBORw0KGgoAAAANSUhEUgAAAKEAAAB4CAMAAACtvmJjAAAAY1BMVEX///8AAAB3d3dOTk7d3d0jIyOcnJxCQkLk5OQoKCj29vaXl5cfHx9aWlrU1NQWFhY0NDSQkJA9PT0NDQ3q6uq0tLTIyMiHh4dvb29gYGBJSUnAwMDw8PCpqallZWUvLy9/f39hwNXJAAAET0lEQVR4nO2c7bqqIBCFzdruNMuvsg+1vP+rPLsUWQOk+xxU7DysXz004RvIMDCo4zQ6nJLaXY7q5HRwUPk+Wy1N2T7v+IKzaZo3Ogct4No0yVutG0TXNEeP3CfgyTRFr06OU6amIXqVlk5ummFAuVObRhhQ7Sy7k3+62TFNMChL2ChOvDstyc5eHdEi10tixW/nIHw0EyyMyax6lVRgdG4ChC/p13MQbtv5n0//RVvCZ4uExVgS4gyEFYtQusnh3gUtl7Yk60q8+Qn9Y3f1pC3iYRWbL3ZdSTk/YcrD0Pa+CzddybY1OnGjcHbCWCY89BEKI3wGwnDbXZwNlaIrYUOllphnJOT3WOm3JeuO58qMAvFenZOQDYxg35Uw38L9zzWgjTovYeY9L3/AxYb7HOBHjO73z+ETSL5mtnn56ooT2tq9CSWpe10pZCMHfVlCfVlCfbWE0Xp5ignhzVmeKkL4bRpHIc8SassS6ssS6ssS6ssS6ssS6ssS6ssS6uu/JCy3qGDQotNRYXtEg5EIg0voc0UnhYkX+Sql+8tuI5jeeWVfserf/gPhYUV0VVS7W71XTP/SHr4KRyIU9x7FVhkg/PlP2JtTEIqZjkQ26Sdc+eWkhIV4PcXdM0C4uvGfTEAoJ6ILyWaIEPIm4xNKmZj2mMTfEYZd+md8wkq6Gmzg/5qQp9DGJ1QdyqlEIySMqrzIiyKhGZzLZISCM2x07SVkmSeyvx9NRsidYQaNchCslIQO2eJnDmd0Ql7dHU6J7QQrNSE5MMOGytiE4Ay9Df+cCWZqwg3eimxeGZsQskeHAJI3OTV7Q4htOBHhkbeCj9m4Vf0bQpKrm+g+BGfoki7PSmKnJCxxQveZ6ciEkIL76dcAKqchFSFsY5+CZPQm8ofgDNMjrX1NDJEwu9SuexfTixPNKRAZvtoAOj0kLnFw1vMnmpfhGO+rVzdwWoK4RFOxDUaGpVh9hJZDhPuJ4kNwhu1thwsC7OYhQlgGjEmIfdre6OiDMUrsJ7xNtU6BccF8HE4rD34mqZcwOhPfOSbhA1qBlWE3g0t8T5h6wtJwREKMDKM0fin1oRBcIvGHd3bI/1wdSqnaEQmlIzqiMt46SBgq1tOTEJbQyW/EnZw6cpiYUFomy+ILZyOEylM6gjoWE4Qb8TigSp1LNEGoWiZLejBXbIJweJw8xVyiAUJ0htkjRuFzS+wkqQFCfD5pTXd+yaNLW1OER4zghcUxWQUnpgiJMxT2w0uk/y4NEWI1D/FLctI/N0O4xdEgbQqTBr6bISS7VtKOK9nzjLYiobTt9J4w+2fCBJ+TVOxaw9eXVzefLlDUH9tg3e5IuYC5ZQn1ZQn1ZQn1ZQn1ZQn1ZQn1ZQn1ZQn19TmEzRO7sbxJalzNlkHKDqmoTnGZVfD9Aqu7rYNqsyzlbUYw5w9mh1+LUkuVlh/w5pMPeHvMB7yBZ/lvMXKW/yaop5b7Nq0/hjBY9OKXHpAAAAAASUVORK5CYII=;" vertex="1" parent="1">
          <mxGeometry x="490" y="180" width="40.25" height="30" as="geometry" />
        </mxCell>
        <mxCell id="JiWWLkQzsv33unfDydBg-12" value="" style="endArrow=classic;html=1;rounded=0;" edge="1" parent="1">
          <mxGeometry width="50" height="50" relative="1" as="geometry">
            <mxPoint x="540" y="196" as="sourcePoint" />
            <mxPoint x="640" y="196" as="targetPoint" />
          </mxGeometry>
        </mxCell>
        <mxCell id="JiWWLkQzsv33unfDydBg-13" value="Move CSV File" style="text;html=1;strokeColor=none;fillColor=none;align=center;verticalAlign=middle;whiteSpace=wrap;rounded=0;" vertex="1" parent="1">
          <mxGeometry x="550" y="160" width="80" height="30" as="geometry" />
        </mxCell>
        <mxCell id="JiWWLkQzsv33unfDydBg-14" value="" style="shape=image;verticalLabelPosition=bottom;labelBackgroundColor=default;verticalAlign=top;aspect=fixed;imageAspect=0;image=data:image/png,iVBORw0KGgoAAAANSUhEUgAAAPEAAAByCAMAAAC1McdNAAABuVBMVEX///8pef7+/v8AAAAedf4Aav6wxv8Lb/5Kh/7z9v9glP4AZv4ApvTh6f8AqPSguv/E3u7w0LX/7NWxz//169xxTjAAADKGyfjy+f4AovNYWFgrAABWKwDw3MtUt/ZCs/X/+PCkfFjExMQAABWGp8AAABsAnvPX5P/k+P6ufFp5VTUAAAxiLgC9hljU6/yOvNgEPl8AIzJ1dXWbzfg5b6uy3PrN2/8iAAAfVHXE4/sAACzO9v9tm/53ov6Isf/QztEYAABRip5RTlSowdS2trbFt62eoayqop3Mp4JomMJFAwApOFeYsMaCWCg1UnQAK0WfrrRsXEyyzu334rslOTodHRwAETKEZy9PdpSOs8GhgmROgKbT4ufNq5nb2M9jSycALFT3xZdXFwDZwZpVQixDWmamh1d2pt6Xh3guJgAwZodqRThmOwBSX0m9v9U8GQAgPVAhM2QAG16NaUI5MieFZUzStH8ALm6Pq9Z9mqYAQnRrlK+ibzKzj1B3aUAAAEiLURaj2eYqGABjdIZ+amfPyK0gIjE5MzdROgBDKQBLZI6jnIRjeq0pT4zLv4BYAAAGGk2fvINMkdDaMDBUAAALK0lEQVR4nO2c+1sTxxrHJ5nFkJgst2A2iSFrApIKpgpNaFAgDUFT9aAU5SBCtCIcvBS0iqeW1qqIF+zpac9ffGZmd5PZ7CV7iU32efL9gSebbJb57My8t5kNAG211VZbbbXVVltttdVWW2211VZbbYnKdplUn7fZTbYlbtrlMavObLNbbUe+DpdpMZ7hZjfbuo54zAMj5POOHdjeTsYKsYvpa3bLrWraGrCLcTm0kwMui8Suo0ea3XZrOm9pFgsKNLvxVtRnA5iZ4prdfPPynrc6pgmyAz1Ulx1gF9PpbjaAWXkZW8SuDscZr2kbs1joZId5qKw9Xozc1WwGU+Km7I1pIkcZryw1ppmj9aU2BTxTzaYwIyraYnzDgbpSNewdDkobqZyJ8RmJJYbVQnDG5xjjFaBypo4u4K4rMNynhuxxiody054J+VVDxH3TKp3slPA6S3eXYWI1ZM90s1mMSZYzGSdWG9gdjujkI7LalglilV5mfA4Ir70+xiqxWi9/9gIQP3chVfNW8OKsmWS1Sx5NmCJWImt6KH5mprahJlSewSKXDvZPdtd82jPxtYlrB2pnoiFib5+ErJjJGuF1CcJvLeIC0HsJYl2+AjDxMQVx1AzxlMcCsdvtzQoaVhR8PaqdzP8Dwvm0ZeLjV68VLy5A+J194mztsDRILJ0EvLXEzLSa8VrMX7+xNGud+AxC4v8Jl1N2iTmfAWIAqq+w5ONbmVSohdcnkjdX4C1iX4IJUatofuI/gC8nOOEvn0igIcLjU2hbJBCDtfwyVyUu40u4JWL8FSPYRxTGtpYYnZROi28BLjMeyuRoZhVij4qH6r19p3sd3iH55PdQ1DcAfAEH8T3ohwgidnfo9Qo8hgbu+j306QbVkyLxJvxXZVQHt+6jk64Ppgjxg/JD/JX600ZlEUJGjNi4zIA/BETguN8f9vtDbqBH7Dqq9FDr0Vtc8BH8kvQxsbtr+WNokH8xQohPDWHi0aUfzmxvB0DPzuOb5U34pNplhNi9PvEjJxEHn8KNYvnTPbjHYeLrz+a3y7vwcLUe8fRRRXNpYuDNhMIn/WGBGAGHWTbOsuFxfWKXYomCf5p8DcBz+O/KUI09HMKscmI8TdHJpyZRX/Er8CeK+OqLi/1wPwUk4jU4j6/V+xG7qp7okDBUlq7UAa71TAriXDjsR4QicYZl2Uw65GfjXqBLrCgAxe7+TNqd/E66BbtwmVMQn82Qky/hk5GT3aOI8SwYuVAl/kUYL8JA74mSQY884J5+JKJa6pERZ8LxgbhE7B4gAzrNsifTdYhrC0C/wgflxEz5pdCJCHhT6KJa4nOk3RPiPF+uDGs8qvm5BXgsJRLzo2IY0hM9rNrqEvxGn1i1micjTuU4bkAkBuiVfxzdJ3QLMvrEtQWg4KhkrK4K7SzBx4KRUSc+M0Z0odJ80XJ9yiOXToh7R3+TiB+YIFZdO5XbagAo4niFOFSH2CVfRP8eHhJrVT5F5htY25FcsxpxT/QrruInZMSx2+iOCX38auQ1+eQ5/Iom1h/VR5RmS0HstkgsC6/5lUlh0qEm4aYt7oiTUPJO629o4uCHY7UeXSK+d3ZWnMclMWZ9hS8lEvf268c4gU61pjaI2MVQBaDYRym+XISTOYC81KD00Wl4yPEH0Rs0MSjl53EuFJupdDIiTqO4ZBdKoxrEjk9e4YB3Bf5MvNPI3iq6sfllvS52a6wzNYqYWqIoVXOIX9AgRDlFBKuAOmQxCjcWktd2R2hi5JiShUjk/jI1j4c2IpFnEF6p5E7rE7AQeQ/v4Nc9ExuPzkYW4Eht+CmT1iKEDnHVco3XJaYKQPxmIVfp7kjk3FokUiEGsbeRsVV+q4CDit3IOfG08hb6/EW1noI+wtrfxq+3CmTElD+hS1wj9zW2sMejq+7rh1ydGi3VJBa8EwCpOHsyV5/Y5ak0uH5ZxFThxGKVJatqtvSJcezBgYyf9dfxxwJxay1RBHwa7dQhBmk0kdkBlkVxiLs+scvTUjuA+jQX1pTE4ZNSJpHzo8CaPTmQqhdXC8TnW2mnhPZqsYI4NDAgmWaQRh3OZjj9bFES09lKpVzDxIKZkB3ISgI6xK21AUh704fBqo+RPm6phbdhzf2IjSP20Dmj293s0n2X1ibbhhHTUVdwDqVCF7ebask4ra09uvNYeMcYcUfVOfW+hMkRCDdslOgbIK0dejXZojudy6Up44zovYYsF+Or/CsUJy973fwcKdqUt3SD388or8ZeF3llLxVi/SjqEGMshJvODAwYI65myLF+Eu8DDg+Y09XE6e+WRiohq4Gg8IMNh/3+eFrIJTIhdBg3Quyh6vSx/qtSv5bf3oMbYxGSxpa3xsb2SfERpQGz/FbkCuBjuPYhpRBr6HX3YoQkXvzB27ExyxV+UbXrLyrE436WHc/h2p6bRJlhFHP5DRHT0QfKay/PiMQP38Drhfdf4vImvFEo5Ie+xbX5E/Dmwrv3P4HFD+8KhTfwCbZ5wafwXeHZ5A+4yIEnxuPCffg/e8Tq+xJlo1rIllDuwKKpDNJhfzxujFi+ZzF2HA69EEvJp5PCqC7BefTO3CiuYSDiG8sBMOMOFtGNip2CqDN5dEIW8HMfCXEJV24Xb8OMPeQutcZSxDgx9KP/gauXXkw8nvGG/EaIGZfcESEI+HiQJu49foYkzevR+RQmnqfs+Aq+C8FHyXF8QApZwUd3cO5biv5uj9irWHSqIUaoEjHOiPF3QmFDxIqlp7WHEB5yVeK1qFDhCO4udWNisfDFHyzkIcRHB5eekHf+IKW7/Pzq6mp5bWfZpoNTy6Bo4pycGMsQMTOljC/5TxNkkUEkLkGhu/jdpdkqMb8LhzbGnuGjdfgfmlis/n5teUFWlEqs2RBitdVFfhM+4Kp9DA9ViDfhfDcnHB1EaWI4PyPIbtgW0CdOWyPW2CawTkq3InHPzmNS1Ip9uJyuEPP/HTkHxKPY6J9p4SYg4t6dM42K15RbV2SWq0qcNk6seBYoKJjpElk/Pg3JclKvuCpWyqPZXSG+lETEi/eI/d7FpwdX8pgYubI90BgFFOOaJvbipbWKrTZMXLtXMbZQ2F49WJm4itfZnsOl2TIiX88jh1V+m5/MgSrxK7jRfXA/CQ9XObB4HF6P3P/xL+KdkH/bnymXP+3bT0YU2zhof8yJ/pjFFT2jxMpn+mK7xOrMk8AreAJZIbyCcrCA39zAd6EyjxdfQph8UX4Ef0MjOrYVibxI/yGEHbG3xHjpluCNiavt5Jq1RZYNjceFmMsgsUdptvhEsVhMiDeCnysWyTAPonfFvQ/lohifBItFFJ3FikJiiR3ir5IZp69hS1mPDjGKq/1YA5XsqS6x53wDGkVE/H/wrmL3lu3r1oTX8tyJC8XRXK4Cu0PxuG7upFg6tqyewmAiMXcb3mp47WhYu4/xqEqh/JgqCaSQdIkb9nxIz208cc8OfoYygjy8VquBaB8qiBtYseVnEgnbEYeqvJ16xHVUQ9xa6xCaki2d2yL2+Or/t1aQ12f2qQHNPnbK0zB0AcgOsUd1S2YrivZQZhdBZf68lZZd9EV3FNPlNaEsZfYc9XgqvfLGdPqMi34YrrOVVk/rSbYllTEjx3kmSdpL6EbFtNQCeX2pVvnMySmeSVJAayuMQTnlcTZK9h6rd+LPvigLQKa62EmeSZKdn8dorR0QRuW208lOM1uC+iz8HJmgxpV6/l65Lf9gRIcTxzTWcH029S521k+BULLayS21Oc+cLP3sHOOwgFqubKfHVB5B5Lxoi1agq9OkprJOKXxoyUzNh9R92mqrrbbaapj+Dxj4rcm6Ra+jAAAAAElFTkSuQmCC;" vertex="1" parent="1">
          <mxGeometry x="650" y="173" width="84.56" height="40" as="geometry" />
        </mxCell>
        <mxCell id="JiWWLkQzsv33unfDydBg-15" value="" style="shape=image;verticalLabelPosition=bottom;labelBackgroundColor=default;verticalAlign=top;aspect=fixed;imageAspect=0;image=data:image/jpeg,/9j/4AAQSkZJRgABAQAAAQABAAD/2wCEAAoHCBEREREPERESEhEREhEREA8RGRIRDxEQGRUaGRgUGBocIS4lHB4rHxYYJjgmKy8xNTU1GiQ7QDszRy40NTEBDAwMEA8QHxISHjQhJCE0MTQ0NDExNDQ0NDQ0MTQ0NDQ0NDQxNDQ0NDQ0NDQ0MTQ0NEAxNDQ0NDQ0NzE0PzQ/NP/AABEIARUAtgMBIgACEQEDEQH/xAAbAAEAAgMBAQAAAAAAAAAAAAAABQYBAgcDBP/EAEAQAAIBAQMHBgsHBAMAAAAAAAABAgMEBhEFEiExUXGREzRBUmGxFiIyQkNTgYKDobIUFTNyc7PBJGKS0Qcj4f/EABkBAQADAQEAAAAAAAAAAAAAAAACAwQFAf/EADERAAIBAwEFBgUEAwAAAAAAAAABAgMEERIhMTNRgRMUIjJBcQUjUmHBNHKhsRWCkf/aAAwDAQACEQMRAD8A7MAAAYNXLDBbdRG5atU6cYqGhSbTls7CqtVVKDnLcgSM6sY6XJLe0j5pZSor0kXu09xVpScnjJtva3izzc4rXJcUcifxaWfDFdRktX3vQ674SNo5Tovz0t+KKlysOvHijKnF+cuKIL4rV5I8yXWnXhLyZJ7mmepSItrSm96JvIlsqTk4SxlFLHOete0123xFVZqEo4bPScBrjpw6TY6gAAAAAAAAAAAAAAAAAABgyYYBBXttE6VCNSDwlGpBp/wfJk+9VCrFQtCUJNYNvxqb/wBHtffmvxIHPTZRowqU8SOdcV50qvh5I6LVyPZbR41Oo1jp8SWK4dB8dS6L82t/lHHuZSITlHyZSj+Vtdx9dLKtph5Naovbj3mSp8GoSecL+jxXsX5olmd0Knrof4v/AGekLoy86svZFr+Stxy5a8UvtE9fZ/o+2eUa8tEqs37cCr/B0F6fyz3vlP6WWSjd+hS0zqze+WYvkbWjLVmoRzKSUpdWOhY9rKlKcpeVJve2zQ10fh1GluX8EJXrx4Vgt93LZOtKtOb0+IkuiK06CwFXud6bfDuZaCNZJTaRttm3STYABUXgAAAAAAAAAAAAAAAwzJhgFdvtzT34HPjoN9+a/Egc+Oja8Pqci+4vRAAGkxmYa1vRKEXDWt6JQjIkgADwFoud6bfDuLOVi53pt8O5lnObX4jOza8JAAFRoAAAAAAAAAAAAAAABhmTDAK7ffmvxIHPjoN9+a/Egc+Oja8Pqci94vRAAGkxmYa1vRKEXDWt6JQjIkgADwFoud6bfDuZZysXO9Nvh3FnObX4jOza8JAA+e12qFKDnN4JcW9iKt+4vbwsm9arGEXKTUYrS29R4ZPtsa8HOKeapOKx6cMNJTsrZWnaJYaYwXkw29rLFdXm/vy7kXyo6IanvM1O4VSppjuJpGTCMlBqB42ivGnFynJRiulnnbrZCjFzm8F0Lpk9iKTlPKc7RLGWiC8mHQu19pbSpOb+xnr3EaS+5drBalWpqok0pZ2CevRJr+D6iKu3zWl7/wBbJUhNYk0W025QTfqAARJgwzJhgFdvtzX4kDnx0G+/NfiQOfHRteH1ORe8XogADSYzMNa3olCLhrW9EoRkSQAB4C0XO9Nvh3FmKxc302+H8krlbKsLPHDyqj8mH8vsOfVi3VaR17eSjRTZ7ZRt8KEc6b0+bFa5MpGUbfOvPPm9C8mHRFHna7VOrNzm8W9WxLYjwNNKiobXvMNe4dTYtiBdLq839+Xcill0urzf35dyPLnyE7Li9CaPgynlOnZ44yeMn5MVrf8A4eGWMsRoLNj41R6o9C7WUy0V51JOc5OUnrb7kUUaOra9xquLlQ8Md56262zrTc5vdHzYrYj5QDckksI5Tbbyy9Xb5rS9/wCtkqRV2+a0vf8ArZKnLqednco8OPsgACJYDDMmGAV2+/NfiQOfHQb781+JA58dG14fU5F7xeiAANJjMw1reiUIuGtb0ShGRJAAHgJLJeU3Z4VFFYznm5repYY6T4KtSU5OUm5SlpbetmgIqKznmTc5NKPogACRAExY8sOjZ3SgvHlKTznqimlp7WQ4IyipLDJwm4PKNpzcm5Sbbelt62zUAkQAAAL1dvmtL3/rZKkVdvmtL3/rZKnLqed+53aPDj7IAAgWAwzJhgFdvvzX4kDnx0G+/NfiQOfHRteH1ORe8XogADSYzMNa3olCLhrW9EoRkSQAJi7dmhUqzjOKklDFJ6scSEpaVknCDnJRXqRBgv8A9z2b1UOBB3msNKlCm4QjBuTTw6dBTG4jJ4waKlpKEXLJXAC+Usk2dxi3Shi4ruJ1Kqp4z6ldGg6ucPcUMF9qZJs6i3yUMcH3FEet7xTqqe70Fag6WMvOTUFguxY6dXlM+Clm5uGPRrJ/7ns3qocCM66i8NE6dpKcdSZQATd5rLTpTgoRUU4NtLpeJCFsJao6kUVIOEnF+hebtP8ApafvfUyWIm7XNae+f1Mljm1PO/c7VHhx9kAAQLAYZkwwCu335r8SBz46DfbmvxIHPjo2vD6nIveL0QABpMZmGtb0ShFw1reiUIyJIE7dL8af6f8AJBHpSrTpvOhJxerGOjQVzjqi0WUp6JqXI6UV29/4dP8AO+4rv3hX9bPieda0zqYKc5Sw1ZzxwM9O3cZJ5Nda7jODilvPI6TQ8iO5dxzY+lZRr6uVnxLK1J1MYZTb11SzlZydBq+TLczm0tb3s+j7wr+tnxPlFGk4Zz6i4rqrjCxgtFz/AEvufyWY5tRtM4Y5k5Rx15vSev3jX9bPiQqUHKWcl1G7jCCi0S97/wASn+nLvK8etavObTlNzaWCctLSPMvpx0xUeRkqz1zcl6l4uzzWG+f1MliIuzzWG+f1MlznVPOzs0eHH2QABAsBhmQAVy+/NPiQOfHQb7Juy6Fj/wBkNRz9wl1XwZ0bV+Dqci9XzeiNTJnMl1XwYzJdV8GaMmTD5CGtb0ShGwhLFeK9a6GSma9j4M8bPUmag2zXsfBjMex8GRPcM1BtmvY+DGa9j4MDDNQbZj2PgxmvY+DAwzUG2a9j4MZr2PgwMM1BtmvY+DGa9j4MDDNQbZr2PgxmPY+DPcjDLtdnmsN8/qZLkPdlP7NDHbLXvZMHLqednco8OPsAAQLADBkA1lFPWsd5rycequCPQAHnyUequA5KPVXA9ABg8+Sj1VwM8nHYvkbgDCNOTWxfIcmti+RuYYB41XCEXKWbGKWMpPBJLa2YoyhOKnDNlGSxjKOEotbU1rPhvMv6O0fps+e5nMqW+r+7Mno8Gv74KXU+d2ePTJN8mti4Icmti+RuCBcacmti+Q5NbF8jcAGnJrYvkOTWxfI3ABpya2L5Dk49VcDcAYMJYGQAAAAD5LDSnClThOefOMUpz1Z0tp9SCRkHiWFgAAHoAAAAAAAABE3l5nX/ACM+e5nMqW+r+7M+i83M7R+Rnz3M5lS31f3Zl2fkf7fgyP8AVL9r/sngAUmsAAAAAAAAAAAAAAAAAAAAAAAAAAAAGACKvNzO0fps+e5nMqW+r+7M+i8vM7R+mz57mcxpb6v7sy5cB/u/Bkf6pft/JPAApNYAAAAAAAAAAAAAAAAAB5VqihFyk8FFNt9iOf26/wDJVJRpQi6aeCk8c5rbrJT/AJDynyVnjRi2p1WtK6qaxRzFWeTjndB0bShT0a6vrsWTm3depr0UvTazpNnvZOpFTjm4PvPXwmq7IlCyFXwm6b87SlsJ1E6lCEJYwUwuKklnJarBeNyko1EsHozl0FlTx0nMMSVs1um4pZ0tGjWzPUoJ7Y7DRTunHZLaXsFJ+2VOtLizP2yp1pcWV93fMs72uRaso2RV6U6Lk4qcXHOWGK7TTJFgVmoxoKTko53jPBNtycnq7Wyr/a59aXFj7ZPrS4s97CWMZI95hq1adpdgUn7ZPrS4sfbJ9aXFnnd3zJd7XIs2WMqU7LSdWb1aIrplLYUelf8AqynhKnCMW9DWLfefZaZ8pHNn4y2SbZTMuZOVGalHyJ6uxmu2t6TWme1syXF1UzmGxF/V5qrWKUfmPCarsiU7I1oz4ZremGgkjyVCEXjB5G4qNZyXXI+WlWeZNJT6MNTRNHNbJWdOcZrzWmdFs1ZThGa85JmStTUXlbmb7aq5rD3o9gAUGkAAAGGZMYgHK7/2l1LWqfRTWHHBkO8EuxI+q8M8+31njj43cj4bZLCnN7EbLrwxhDkv7Mdqsuc+bx/wj7FaPHU/78PmXAolgl3p/Mu9nljCL2o2N6qUJfY58lpqzj9z1Payy0tHiYiyA3Eimtox7T4cXtGL2jSeaz7se0Y9p8OL2jF7RpGs+7HtGPafDi9oxe0aRqPuxW0jcu0VOhPbHTE9MXtNKyzoSWPQ+49isNM8csrBX8hTwm47V8ywIq+TpYVVvaLQXXC8RGjuMpl4u1WcqCT8x5pRkW66c/FnHtx7jDcLMDbavFQsYAMJ0wAAAaz1PczY1lqe4A4zlNf1lb80j48oP/qqbj7crRcbbWT0eMz47esaU/ymu8869kZLPyP3ZBZP6fYWmz1JZkdPQVewLQ/YWezrxI7jdRXyInNuX8+R7cpLaelnqNySbPE9LL5SDRVkkQARPQAAAAAAHqe5gxPU9z7gCpQ0VdHW/km+UltIOjpqY/3PvJpmmtvRXA25SW0uFyKsnKcXqzccfaimoudxl+I8OjXwMVxw2a7TiouIAOYdoAAAGGZMMA5Fe+GZlCpsk00/Yj4K0M6Mo7Uyzf8AJVkanTrpaGnGT7cVgVKFqjm4vWlqN9WnKrThOKzswYKNSNKpOEnjblETZIYaP7sCyRWCSImyQzp9mLZLm5x0RjDkjmSlrnKXNmT2saxl7DxPrsUNDZWwj6gARPQAAAAAAeFtqZtOctiPdkRl60YQVNa5eUtiJQjmSR5J4RE2FYz4smCOyZDXL2EgXVX4iEVhAv1yaeFGctstG7AocVizqGQLPydmpxwwbim97MF1LEMczfYxzUzyJIyYMnPOsAAADBkAEReTJatVnnS87yo/mWlI4xaLNUpzlCUWpxeDi9p31kdbMjWatJTqUoymtGdqZstbvsU01lGK6tO2aknhnIrDZnGOLWln15jOneDtk9THizHg9ZPVLiy2V7FvOGZlYTXqjnNjsk6s404Jtt4bu0vFG68Ixis94pad5MWPJtGji6cFFvW9Z9pnqXMpPw7DVSs4xXj2sr3gzT67HgxDrMsIK+2qcy3u1L6SveDEOsx4MQ6zLCB21TmO7UvpK94MQ6zHgzDrssIHbVOY7tS+kpN4ciyoUXVo4zlHTKPZtOcVM+pNt4uTfA721juIud37JKTm6Mc6Txb0rSaqF72aaksmWvY63mDwctoUXCKjs1npms6b4PWT1S4seDtk9UuLPXeRfoV9wnzRTLtZLlXqxk08yDUpPo0dB0hLBYI8rNZoUoqEIqMV0I9zJVq9pLJuoUVSjj1AAKi8AAAAAAAAAAAAAAAAAAAAAAAAAAAAAAAAAAAAAAA//9k=;" vertex="1" parent="1">
          <mxGeometry x="690" y="260" width="26.28" height="40" as="geometry" />
        </mxCell>
        <mxCell id="JiWWLkQzsv33unfDydBg-16" value="" style="endArrow=classic;html=1;rounded=0;" edge="1" parent="1">
          <mxGeometry width="50" height="50" relative="1" as="geometry">
            <mxPoint x="702.64" y="220" as="sourcePoint" />
            <mxPoint x="703" y="250" as="targetPoint" />
          </mxGeometry>
        </mxCell>
        <mxCell id="JiWWLkQzsv33unfDydBg-17" value="Data Factory Pipeline for CSV Process" style="text;html=1;strokeColor=none;fillColor=none;align=center;verticalAlign=middle;whiteSpace=wrap;rounded=0;" vertex="1" parent="1">
          <mxGeometry x="653.14" y="310" width="126.86" height="30" as="geometry" />
        </mxCell>
        <mxCell id="JiWWLkQzsv33unfDydBg-18" value="" style="endArrow=classic;html=1;rounded=0;" edge="1" parent="1">
          <mxGeometry width="50" height="50" relative="1" as="geometry">
            <mxPoint x="734.56" y="279.5" as="sourcePoint" />
            <mxPoint x="834.56" y="279.5" as="targetPoint" />
          </mxGeometry>
        </mxCell>
        <mxCell id="JiWWLkQzsv33unfDydBg-19" value="" style="image;aspect=fixed;html=1;points=[];align=center;fontSize=12;image=img/lib/azure2/databases/SQL_Database.svg;" vertex="1" parent="1">
          <mxGeometry x="850" y="259" width="31.5" height="42" as="geometry" />
        </mxCell>
        <mxCell id="JiWWLkQzsv33unfDydBg-20" value="Trigger Pipeline" style="text;html=1;strokeColor=none;fillColor=none;align=center;verticalAlign=middle;whiteSpace=wrap;rounded=0;" vertex="1" parent="1">
          <mxGeometry x="600" y="220" width="113.72" height="30" as="geometry" />
        </mxCell>
        <mxCell id="JiWWLkQzsv33unfDydBg-21" value="Save Product data" style="text;html=1;strokeColor=none;fillColor=none;align=center;verticalAlign=middle;whiteSpace=wrap;rounded=0;" vertex="1" parent="1">
          <mxGeometry x="730" y="250" width="113.72" height="30" as="geometry" />
        </mxCell>
        <mxCell id="JiWWLkQzsv33unfDydBg-22" value="Store User" style="shape=umlActor;verticalLabelPosition=bottom;verticalAlign=top;html=1;outlineConnect=0;" vertex="1" parent="1">
          <mxGeometry x="170" y="420" width="20" height="30" as="geometry" />
        </mxCell>
        <mxCell id="JiWWLkQzsv33unfDydBg-24" value="" style="endArrow=classic;html=1;rounded=0;startArrow=classic;startFill=1;" edge="1" parent="1">
          <mxGeometry width="50" height="50" relative="1" as="geometry">
            <mxPoint x="210" y="434.5" as="sourcePoint" />
            <mxPoint x="310" y="434.5" as="targetPoint" />
          </mxGeometry>
        </mxCell>
        <mxCell id="JiWWLkQzsv33unfDydBg-25" value="Search product&amp;nbsp;" style="text;html=1;strokeColor=none;fillColor=none;align=center;verticalAlign=middle;whiteSpace=wrap;rounded=0;" vertex="1" parent="1">
          <mxGeometry x="220" y="400" width="80" height="30" as="geometry" />
        </mxCell>
        <mxCell id="JiWWLkQzsv33unfDydBg-26" value="" style="shape=image;verticalLabelPosition=bottom;labelBackgroundColor=default;verticalAlign=top;aspect=fixed;imageAspect=0;image=data:image/png,iVBORw0KGgoAAAANSUhEUgAAAIUAAAB7CAMAAABtnLNnAAAAaVBMVEX29vYAAAD39/f+/v77+/uFhYXHx8fAwMDX19dra2sgICChoaHx8fFHR0eKioru7u7m5uazs7NeXl7e3t4XFxesrKx5eXl/f38wMDC6urpRUVFXV1c/Pz/Q0NAQEBBkZGSWlpYnJyc4ODhHLdNyAAAG2ElEQVR4nO1ba7eqLBDWYdJME81LaZnV//+RLwIqkO3ceems9e75cBa7I/A49xnQgn+BLLC+T/8aCkCyEuHTi7cogERxuFmFwoKSYRRg+Tt7NXrEBjsECrCO62FoyMcBFMRfF4Rtu/iEAqIVxSFoH4CJArO1Qdi2gyYKslkfRUb+BRT+/wJFHYZhfufDq9eMUz7e5WzsrYXC55Gg4uOYjws+rrjz7uxgWRQPypWf5GxcchcJeGBjj+8KwX4VFKUICSRk4xr5H9jIIZQoylVQ7HUUnBfroyifUGi8sM6roLhQgaIJj+ev6QVzig1FfOyQ3l4S0tvL8ihsz/f9jfARds7GMmm4bth4NX8xkv5Q/KH4Q/ExirOzNLmP9yg8gguTNcKDe3qxMj+NiiN/KP5QzIcC8LkvsjoKEhVFYvZF1kaBMctodv64mUuhwOrKp1ajpi6GIhRTN99EAfQip8IYDV0IBTrtqt/kBZECsZMvogCQkfoyzmUsgwIrOfM2zmHMhgJUNewEwgwVRujnHCiadiDQyOqeApSLPtgwiCi8e4tZeIFYealdb9vHMJETQ4Juae/yLXnzHpNRANtJ1P3XFga2PWOHSIs9V0h+EMxUFIA0a1ewj0SuKbsRF0ravoRdFvQ1jmkoNAx9e2QrS/MNEqWHvY/pK7udggJJdDvZCuViia5j5yLZq///yF7w43MUSJLwamskmtgAB7kpM45YfyK9RUOK+iEKlkdVub6BfYqlQBIpkCP7G8xjnvRYPedgH6Fg9l/lBh9Ot0guTlqBNKwB3IZ3/UlmuJa54AcoAN3a4MPFpx2niRRIKs46nrSnWdDR2fEBCqCesei+sHqt68528nYWkCB+GFNyDcYHKNAo5WsH1CUVC+mXI1Zx0GdpicfvUXRpFKedV1k6d4nkVEq1t8XAOaTKxLN6bvwBikiVsmdaHlgti4ygzixbZceeTkNhlbZKm0Q7Fca2gRrrYsStfirqTdWLwtYpVz0ASDdyj/ptmHd5sqpqml4w31gYlnc9OIHE0cmrT76ZSriGatp74+D0E39BaHYxlj0UwlDQNZZjP2dn4+GyCIwVP/LgQMDdG0s/Yp50SYGkiWAFBr7pKg7Okwv/NJoxUTum86oDACr3rMVGEJXGQ/lAGJkQU1kw2eZ6qPJJJ5BMTOnSYEH3YwJDOcaU/AIa81M9kUe6KbIaIqoe78IEX6w0LeNjoSpMFRStQM7SQsi9+8/TLXiZA0/OfpnB+H3L1CxPuyXKOPgh/Z2hEmDJZ8wX8agpEKad3EoPrvVjqThLPcL4UeR1RpFI6Zy6tTDy66P7Ex9mQ2GJm0wsr5ITlPIUBm8fLYNCEN7E89dxfaRlUHRrlcG7l3+aOeJUdySKTiDhyAajsl8iI9MMKLry9PfdOBaZ8pkkItm6/61AxGwmlfsje307aByK7sj+dwIR9wSxEahDg+ebUr+WiHz+VxaC8bG5xdc0HViw1fs+n6EQeVY+qsXZbhQJR3cc4t+H/iIID172xk+2OyCPr20Nxct9+dtEFE3OMZg/DD2Z8Q6UhoL4dbXmKQ00ffITRQvpXaIAntzvXOUtFkaBAc8Wa4tEvtCLvRMQ4fQUW10WBVCZjXpKlXI9yjTl1ncsl0Xx45XNvK+wFpZI/BrEJVmJF0I5X1C1ll40wcssZloqFFNd3lLNyrUlbiKwOIqmjETy8jJvGjUOVASB5VAAPXq+u1Wq7Z23UcvpcBuHB+E0lkNhdj9ORRPa6U3/9cE7PQui0O+Yp6JLCoaI0u3CKPTGktu2OYj+u4NLojC6YmUXu7rUWRDPP5dDQbVuVJ8c9iUJp3wAxVy3g5oXv6nNqD7lBlCYtCsHJHLYzkRM81ltnTid/x7ixSnbRsGApV5381DKNwUgSXugcFb0ov2tbrJg6xnFfCQkoLSPWxuxehsJjZj6OvB9TPyYEaGLIjvhL1SXHnfps/hywx1caAqVpIlkyabvQj1iyiQQKb7zEreHOOIrlsDsaU6mjDC1yPTW8T7fePovZ3kwK77o6W5RzEbMAPH2/jEhOImChZ70/YzfkIs/ZnstPSJQUDD78cwzr0kUEt09vaBYlUgDAyPHnY+apFLK2WyPc9rdm3/3CDoKUTzOR9w15Gy7eEg/7lvauA1HtZGlCCLvFiCgaxzJ2gfmPEjldWXRst9kAi+pgZi1Efes2J8ZrPFlaHd5p6PS2HUVFDJMhY7ryGhv3KtaAQXInsEuYYWBTEY3ekdnFRTCb9TYh/XBbzKXhhHXTD+LpqNjsSD72FRf0IumhZ/4N1554Pbo0qeu/VpfT0N7dQmHDg7+tW+4v0lgffmrfkH/Aa++clKP4V8CAAAAAElFTkSuQmCC;" vertex="1" parent="1">
          <mxGeometry x="326" y="420" width="35.68" height="33" as="geometry" />
        </mxCell>
        <mxCell id="JiWWLkQzsv33unfDydBg-27" value="SPA" style="text;html=1;strokeColor=none;fillColor=none;align=center;verticalAlign=middle;whiteSpace=wrap;rounded=0;" vertex="1" parent="1">
          <mxGeometry x="293.84000000000003" y="453" width="100" height="30" as="geometry" />
        </mxCell>
        <mxCell id="JiWWLkQzsv33unfDydBg-28" value="Call API" style="text;html=1;strokeColor=none;fillColor=none;align=center;verticalAlign=middle;whiteSpace=wrap;rounded=0;" vertex="1" parent="1">
          <mxGeometry x="385" y="400" width="80" height="30" as="geometry" />
        </mxCell>
        <mxCell id="JiWWLkQzsv33unfDydBg-29" value="" style="endArrow=classic;html=1;rounded=0;startArrow=classic;startFill=1;" edge="1" parent="1">
          <mxGeometry width="50" height="50" relative="1" as="geometry">
            <mxPoint x="375" y="434.5" as="sourcePoint" />
            <mxPoint x="475" y="434.5" as="targetPoint" />
          </mxGeometry>
        </mxCell>
        <mxCell id="JiWWLkQzsv33unfDydBg-30" value="" style="shape=image;verticalLabelPosition=bottom;labelBackgroundColor=default;verticalAlign=top;aspect=fixed;imageAspect=0;image=data:image/png,iVBORw0KGgoAAAANSUhEUgAAAKEAAAB4CAMAAACtvmJjAAAAY1BMVEX///8AAAB3d3dOTk7d3d0jIyOcnJxCQkLk5OQoKCj29vaXl5cfHx9aWlrU1NQWFhY0NDSQkJA9PT0NDQ3q6uq0tLTIyMiHh4dvb29gYGBJSUnAwMDw8PCpqallZWUvLy9/f39hwNXJAAAET0lEQVR4nO2c7bqqIBCFzdruNMuvsg+1vP+rPLsUWQOk+xxU7DysXz004RvIMDCo4zQ6nJLaXY7q5HRwUPk+Wy1N2T7v+IKzaZo3Ogct4No0yVutG0TXNEeP3CfgyTRFr06OU6amIXqVlk5ummFAuVObRhhQ7Sy7k3+62TFNMChL2ChOvDstyc5eHdEi10tixW/nIHw0EyyMyax6lVRgdG4ChC/p13MQbtv5n0//RVvCZ4uExVgS4gyEFYtQusnh3gUtl7Yk60q8+Qn9Y3f1pC3iYRWbL3ZdSTk/YcrD0Pa+CzddybY1OnGjcHbCWCY89BEKI3wGwnDbXZwNlaIrYUOllphnJOT3WOm3JeuO58qMAvFenZOQDYxg35Uw38L9zzWgjTovYeY9L3/AxYb7HOBHjO73z+ETSL5mtnn56ooT2tq9CSWpe10pZCMHfVlCfVlCfbWE0Xp5ignhzVmeKkL4bRpHIc8SassS6ssS6ssS6ssS6ssS6ssS6ssS6uu/JCy3qGDQotNRYXtEg5EIg0voc0UnhYkX+Sql+8tuI5jeeWVfserf/gPhYUV0VVS7W71XTP/SHr4KRyIU9x7FVhkg/PlP2JtTEIqZjkQ26Sdc+eWkhIV4PcXdM0C4uvGfTEAoJ6ILyWaIEPIm4xNKmZj2mMTfEYZd+md8wkq6Gmzg/5qQp9DGJ1QdyqlEIySMqrzIiyKhGZzLZISCM2x07SVkmSeyvx9NRsidYQaNchCslIQO2eJnDmd0Ql7dHU6J7QQrNSE5MMOGytiE4Ay9Df+cCWZqwg3eimxeGZsQskeHAJI3OTV7Q4htOBHhkbeCj9m4Vf0bQpKrm+g+BGfoki7PSmKnJCxxQveZ6ciEkIL76dcAKqchFSFsY5+CZPQm8ofgDNMjrX1NDJEwu9SuexfTixPNKRAZvtoAOj0kLnFw1vMnmpfhGO+rVzdwWoK4RFOxDUaGpVh9hJZDhPuJ4kNwhu1thwsC7OYhQlgGjEmIfdre6OiDMUrsJ7xNtU6BccF8HE4rD34mqZcwOhPfOSbhA1qBlWE3g0t8T5h6wtJwREKMDKM0fin1oRBcIvGHd3bI/1wdSqnaEQmlIzqiMt46SBgq1tOTEJbQyW/EnZw6cpiYUFomy+ILZyOEylM6gjoWE4Qb8TigSp1LNEGoWiZLejBXbIJweJw8xVyiAUJ0htkjRuFzS+wkqQFCfD5pTXd+yaNLW1OER4zghcUxWQUnpgiJMxT2w0uk/y4NEWI1D/FLctI/N0O4xdEgbQqTBr6bISS7VtKOK9nzjLYiobTt9J4w+2fCBJ+TVOxaw9eXVzefLlDUH9tg3e5IuYC5ZQn1ZQn1ZQn1ZQn1ZQn1ZQn1ZQn1ZQn19TmEzRO7sbxJalzNlkHKDqmoTnGZVfD9Aqu7rYNqsyzlbUYw5w9mh1+LUkuVlh/w5pMPeHvMB7yBZ/lvMXKW/yaop5b7Nq0/hjBY9OKXHpAAAAAASUVORK5CYII=;" vertex="1" parent="1">
          <mxGeometry x="490" y="420" width="40.25" height="30" as="geometry" />
        </mxCell>
        <mxCell id="JiWWLkQzsv33unfDydBg-31" value="" style="endArrow=classic;html=1;rounded=0;" edge="1" parent="1">
          <mxGeometry width="50" height="50" relative="1" as="geometry">
            <mxPoint x="540" y="436" as="sourcePoint" />
            <mxPoint x="640" y="436" as="targetPoint" />
          </mxGeometry>
        </mxCell>
        <mxCell id="JiWWLkQzsv33unfDydBg-32" value="Query Product data according to criteria" style="text;html=1;strokeColor=none;fillColor=none;align=center;verticalAlign=middle;whiteSpace=wrap;rounded=0;" vertex="1" parent="1">
          <mxGeometry x="540" y="400" width="110" height="30" as="geometry" />
        </mxCell>
        <mxCell id="JiWWLkQzsv33unfDydBg-38" value="" style="image;aspect=fixed;html=1;points=[];align=center;fontSize=12;image=img/lib/azure2/databases/SQL_Database.svg;" vertex="1" parent="1">
          <mxGeometry x="658.5" y="411" width="31.5" height="42" as="geometry" />
        </mxCell>
        <mxCell id="JiWWLkQzsv33unfDydBg-41" value="" style="endArrow=none;html=1;rounded=0;startArrow=classic;startFill=1;endFill=0;" edge="1" parent="1">
          <mxGeometry width="50" height="50" relative="1" as="geometry">
            <mxPoint x="540" y="446" as="sourcePoint" />
            <mxPoint x="640" y="446" as="targetPoint" />
          </mxGeometry>
        </mxCell>
        <mxCell id="JiWWLkQzsv33unfDydBg-42" value="Return Product data according to criteria" style="text;html=1;strokeColor=none;fillColor=none;align=center;verticalAlign=middle;whiteSpace=wrap;rounded=0;" vertex="1" parent="1">
          <mxGeometry x="540" y="453" width="110" height="30" as="geometry" />
        </mxCell>
        <mxCell id="JiWWLkQzsv33unfDydBg-43" value="Store User" style="shape=umlActor;verticalLabelPosition=bottom;verticalAlign=top;html=1;outlineConnect=0;" vertex="1" parent="1">
          <mxGeometry x="170" y="540" width="20" height="30" as="geometry" />
        </mxCell>
        <mxCell id="JiWWLkQzsv33unfDydBg-44" value="" style="endArrow=classic;html=1;rounded=0;startArrow=classic;startFill=1;" edge="1" parent="1">
          <mxGeometry width="50" height="50" relative="1" as="geometry">
            <mxPoint x="210" y="554.5" as="sourcePoint" />
            <mxPoint x="310" y="554.5" as="targetPoint" />
          </mxGeometry>
        </mxCell>
        <mxCell id="JiWWLkQzsv33unfDydBg-45" value="Update Product" style="text;html=1;strokeColor=none;fillColor=none;align=center;verticalAlign=middle;whiteSpace=wrap;rounded=0;" vertex="1" parent="1">
          <mxGeometry x="220" y="520" width="80" height="30" as="geometry" />
        </mxCell>
        <mxCell id="JiWWLkQzsv33unfDydBg-46" value="" style="shape=image;verticalLabelPosition=bottom;labelBackgroundColor=default;verticalAlign=top;aspect=fixed;imageAspect=0;image=data:image/png,iVBORw0KGgoAAAANSUhEUgAAAIUAAAB7CAMAAABtnLNnAAAAaVBMVEX29vYAAAD39/f+/v77+/uFhYXHx8fAwMDX19dra2sgICChoaHx8fFHR0eKioru7u7m5uazs7NeXl7e3t4XFxesrKx5eXl/f38wMDC6urpRUVFXV1c/Pz/Q0NAQEBBkZGSWlpYnJyc4ODhHLdNyAAAG2ElEQVR4nO1ba7eqLBDWYdJME81LaZnV//+RLwIqkO3ceems9e75cBa7I/A49xnQgn+BLLC+T/8aCkCyEuHTi7cogERxuFmFwoKSYRRg+Tt7NXrEBjsECrCO62FoyMcBFMRfF4Rtu/iEAqIVxSFoH4CJArO1Qdi2gyYKslkfRUb+BRT+/wJFHYZhfufDq9eMUz7e5WzsrYXC55Gg4uOYjws+rrjz7uxgWRQPypWf5GxcchcJeGBjj+8KwX4VFKUICSRk4xr5H9jIIZQoylVQ7HUUnBfroyifUGi8sM6roLhQgaIJj+ev6QVzig1FfOyQ3l4S0tvL8ihsz/f9jfARds7GMmm4bth4NX8xkv5Q/KH4Q/ExirOzNLmP9yg8gguTNcKDe3qxMj+NiiN/KP5QzIcC8LkvsjoKEhVFYvZF1kaBMctodv64mUuhwOrKp1ajpi6GIhRTN99EAfQip8IYDV0IBTrtqt/kBZECsZMvogCQkfoyzmUsgwIrOfM2zmHMhgJUNewEwgwVRujnHCiadiDQyOqeApSLPtgwiCi8e4tZeIFYealdb9vHMJETQ4Juae/yLXnzHpNRANtJ1P3XFga2PWOHSIs9V0h+EMxUFIA0a1ewj0SuKbsRF0ravoRdFvQ1jmkoNAx9e2QrS/MNEqWHvY/pK7udggJJdDvZCuViia5j5yLZq///yF7w43MUSJLwamskmtgAB7kpM45YfyK9RUOK+iEKlkdVub6BfYqlQBIpkCP7G8xjnvRYPedgH6Fg9l/lBh9Ot0guTlqBNKwB3IZ3/UlmuJa54AcoAN3a4MPFpx2niRRIKs46nrSnWdDR2fEBCqCesei+sHqt68528nYWkCB+GFNyDcYHKNAo5WsH1CUVC+mXI1Zx0GdpicfvUXRpFKedV1k6d4nkVEq1t8XAOaTKxLN6bvwBikiVsmdaHlgti4ygzixbZceeTkNhlbZKm0Q7Fca2gRrrYsStfirqTdWLwtYpVz0ASDdyj/ptmHd5sqpqml4w31gYlnc9OIHE0cmrT76ZSriGatp74+D0E39BaHYxlj0UwlDQNZZjP2dn4+GyCIwVP/LgQMDdG0s/Yp50SYGkiWAFBr7pKg7Okwv/NJoxUTum86oDACr3rMVGEJXGQ/lAGJkQU1kw2eZ6qPJJJ5BMTOnSYEH3YwJDOcaU/AIa81M9kUe6KbIaIqoe78IEX6w0LeNjoSpMFRStQM7SQsi9+8/TLXiZA0/OfpnB+H3L1CxPuyXKOPgh/Z2hEmDJZ8wX8agpEKad3EoPrvVjqThLPcL4UeR1RpFI6Zy6tTDy66P7Ex9mQ2GJm0wsr5ITlPIUBm8fLYNCEN7E89dxfaRlUHRrlcG7l3+aOeJUdySKTiDhyAajsl8iI9MMKLry9PfdOBaZ8pkkItm6/61AxGwmlfsje307aByK7sj+dwIR9wSxEahDg+ebUr+WiHz+VxaC8bG5xdc0HViw1fs+n6EQeVY+qsXZbhQJR3cc4t+H/iIID172xk+2OyCPr20Nxct9+dtEFE3OMZg/DD2Z8Q6UhoL4dbXmKQ00ffITRQvpXaIAntzvXOUtFkaBAc8Wa4tEvtCLvRMQ4fQUW10WBVCZjXpKlXI9yjTl1ncsl0Xx45XNvK+wFpZI/BrEJVmJF0I5X1C1ll40wcssZloqFFNd3lLNyrUlbiKwOIqmjETy8jJvGjUOVASB5VAAPXq+u1Wq7Z23UcvpcBuHB+E0lkNhdj9ORRPa6U3/9cE7PQui0O+Yp6JLCoaI0u3CKPTGktu2OYj+u4NLojC6YmUXu7rUWRDPP5dDQbVuVJ8c9iUJp3wAxVy3g5oXv6nNqD7lBlCYtCsHJHLYzkRM81ltnTid/x7ixSnbRsGApV5381DKNwUgSXugcFb0ov2tbrJg6xnFfCQkoLSPWxuxehsJjZj6OvB9TPyYEaGLIjvhL1SXHnfps/hywx1caAqVpIlkyabvQj1iyiQQKb7zEreHOOIrlsDsaU6mjDC1yPTW8T7fePovZ3kwK77o6W5RzEbMAPH2/jEhOImChZ70/YzfkIs/ZnstPSJQUDD78cwzr0kUEt09vaBYlUgDAyPHnY+apFLK2WyPc9rdm3/3CDoKUTzOR9w15Gy7eEg/7lvauA1HtZGlCCLvFiCgaxzJ2gfmPEjldWXRst9kAi+pgZi1Efes2J8ZrPFlaHd5p6PS2HUVFDJMhY7ryGhv3KtaAQXInsEuYYWBTEY3ekdnFRTCb9TYh/XBbzKXhhHXTD+LpqNjsSD72FRf0IumhZ/4N1554Pbo0qeu/VpfT0N7dQmHDg7+tW+4v0lgffmrfkH/Aa++clKP4V8CAAAAAElFTkSuQmCC;" vertex="1" parent="1">
          <mxGeometry x="326" y="540" width="35.68" height="33" as="geometry" />
        </mxCell>
        <mxCell id="JiWWLkQzsv33unfDydBg-47" value="SPA" style="text;html=1;strokeColor=none;fillColor=none;align=center;verticalAlign=middle;whiteSpace=wrap;rounded=0;" vertex="1" parent="1">
          <mxGeometry x="293.84000000000003" y="573" width="100" height="30" as="geometry" />
        </mxCell>
        <mxCell id="JiWWLkQzsv33unfDydBg-48" value="Call API" style="text;html=1;strokeColor=none;fillColor=none;align=center;verticalAlign=middle;whiteSpace=wrap;rounded=0;" vertex="1" parent="1">
          <mxGeometry x="385" y="520" width="80" height="30" as="geometry" />
        </mxCell>
        <mxCell id="JiWWLkQzsv33unfDydBg-49" value="" style="endArrow=classic;html=1;rounded=0;startArrow=classic;startFill=1;" edge="1" parent="1">
          <mxGeometry width="50" height="50" relative="1" as="geometry">
            <mxPoint x="375" y="554.5" as="sourcePoint" />
            <mxPoint x="475" y="554.5" as="targetPoint" />
          </mxGeometry>
        </mxCell>
        <mxCell id="JiWWLkQzsv33unfDydBg-50" value="" style="shape=image;verticalLabelPosition=bottom;labelBackgroundColor=default;verticalAlign=top;aspect=fixed;imageAspect=0;image=data:image/png,iVBORw0KGgoAAAANSUhEUgAAAKEAAAB4CAMAAACtvmJjAAAAY1BMVEX///8AAAB3d3dOTk7d3d0jIyOcnJxCQkLk5OQoKCj29vaXl5cfHx9aWlrU1NQWFhY0NDSQkJA9PT0NDQ3q6uq0tLTIyMiHh4dvb29gYGBJSUnAwMDw8PCpqallZWUvLy9/f39hwNXJAAAET0lEQVR4nO2c7bqqIBCFzdruNMuvsg+1vP+rPLsUWQOk+xxU7DysXz004RvIMDCo4zQ6nJLaXY7q5HRwUPk+Wy1N2T7v+IKzaZo3Ogct4No0yVutG0TXNEeP3CfgyTRFr06OU6amIXqVlk5ummFAuVObRhhQ7Sy7k3+62TFNMChL2ChOvDstyc5eHdEi10tixW/nIHw0EyyMyax6lVRgdG4ChC/p13MQbtv5n0//RVvCZ4uExVgS4gyEFYtQusnh3gUtl7Yk60q8+Qn9Y3f1pC3iYRWbL3ZdSTk/YcrD0Pa+CzddybY1OnGjcHbCWCY89BEKI3wGwnDbXZwNlaIrYUOllphnJOT3WOm3JeuO58qMAvFenZOQDYxg35Uw38L9zzWgjTovYeY9L3/AxYb7HOBHjO73z+ETSL5mtnn56ooT2tq9CSWpe10pZCMHfVlCfVlCfbWE0Xp5ignhzVmeKkL4bRpHIc8SassS6ssS6ssS6ssS6ssS6ssS6ssS6uu/JCy3qGDQotNRYXtEg5EIg0voc0UnhYkX+Sql+8tuI5jeeWVfserf/gPhYUV0VVS7W71XTP/SHr4KRyIU9x7FVhkg/PlP2JtTEIqZjkQ26Sdc+eWkhIV4PcXdM0C4uvGfTEAoJ6ILyWaIEPIm4xNKmZj2mMTfEYZd+md8wkq6Gmzg/5qQp9DGJ1QdyqlEIySMqrzIiyKhGZzLZISCM2x07SVkmSeyvx9NRsidYQaNchCslIQO2eJnDmd0Ql7dHU6J7QQrNSE5MMOGytiE4Ay9Df+cCWZqwg3eimxeGZsQskeHAJI3OTV7Q4htOBHhkbeCj9m4Vf0bQpKrm+g+BGfoki7PSmKnJCxxQveZ6ciEkIL76dcAKqchFSFsY5+CZPQm8ofgDNMjrX1NDJEwu9SuexfTixPNKRAZvtoAOj0kLnFw1vMnmpfhGO+rVzdwWoK4RFOxDUaGpVh9hJZDhPuJ4kNwhu1thwsC7OYhQlgGjEmIfdre6OiDMUrsJ7xNtU6BccF8HE4rD34mqZcwOhPfOSbhA1qBlWE3g0t8T5h6wtJwREKMDKM0fin1oRBcIvGHd3bI/1wdSqnaEQmlIzqiMt46SBgq1tOTEJbQyW/EnZw6cpiYUFomy+ILZyOEylM6gjoWE4Qb8TigSp1LNEGoWiZLejBXbIJweJw8xVyiAUJ0htkjRuFzS+wkqQFCfD5pTXd+yaNLW1OER4zghcUxWQUnpgiJMxT2w0uk/y4NEWI1D/FLctI/N0O4xdEgbQqTBr6bISS7VtKOK9nzjLYiobTt9J4w+2fCBJ+TVOxaw9eXVzefLlDUH9tg3e5IuYC5ZQn1ZQn1ZQn1ZQn1ZQn1ZQn1ZQn1ZQn19TmEzRO7sbxJalzNlkHKDqmoTnGZVfD9Aqu7rYNqsyzlbUYw5w9mh1+LUkuVlh/w5pMPeHvMB7yBZ/lvMXKW/yaop5b7Nq0/hjBY9OKXHpAAAAAASUVORK5CYII=;" vertex="1" parent="1">
          <mxGeometry x="490" y="540" width="40.25" height="30" as="geometry" />
        </mxCell>
        <mxCell id="JiWWLkQzsv33unfDydBg-51" value="" style="endArrow=classic;html=1;rounded=0;" edge="1" parent="1">
          <mxGeometry width="50" height="50" relative="1" as="geometry">
            <mxPoint x="540" y="556" as="sourcePoint" />
            <mxPoint x="640" y="556" as="targetPoint" />
          </mxGeometry>
        </mxCell>
        <mxCell id="JiWWLkQzsv33unfDydBg-52" value="Save updated product data" style="text;html=1;strokeColor=none;fillColor=none;align=center;verticalAlign=middle;whiteSpace=wrap;rounded=0;" vertex="1" parent="1">
          <mxGeometry x="540" y="520" width="110" height="30" as="geometry" />
        </mxCell>
        <mxCell id="JiWWLkQzsv33unfDydBg-53" value="" style="image;aspect=fixed;html=1;points=[];align=center;fontSize=12;image=img/lib/azure2/databases/SQL_Database.svg;" vertex="1" parent="1">
          <mxGeometry x="658.5" y="531" width="31.5" height="42" as="geometry" />
        </mxCell>
        <mxCell id="JiWWLkQzsv33unfDydBg-54" value="" style="endArrow=none;html=1;rounded=0;startArrow=classic;startFill=1;endFill=0;" edge="1" parent="1">
          <mxGeometry width="50" height="50" relative="1" as="geometry">
            <mxPoint x="540" y="566" as="sourcePoint" />
            <mxPoint x="640" y="566" as="targetPoint" />
          </mxGeometry>
        </mxCell>
        <mxCell id="JiWWLkQzsv33unfDydBg-55" value="Return Success/Failure status" style="text;html=1;strokeColor=none;fillColor=none;align=center;verticalAlign=middle;whiteSpace=wrap;rounded=0;" vertex="1" parent="1">
          <mxGeometry x="540" y="573" width="110" height="30" as="geometry" />
        </mxCell>
      </root>
    </mxGraphModel>
  </diagram>
</mxfile>
